<?xml version="1.0" encoding="UTF-8"?>
<svg xmlns="http://www.w3.org/2000/svg" viewBox="0 0 720 1471" width="720" height="1471">
<path d="M137.23 691.99C129.91 691.47 122.48 691.8 115.14 691.8C111.67 691.8 107.2 691.12 104.23 692.58C102.01 696.98 103.39 714.48 103.39 720.47C103.39 743.34 103.39 766.21 103.39 789.09C103.39 798.55 106.73 818.37 94.29 821.34C92.56 821.75 90.6 821.51 88.83 821.51C74.77 821.51 76.14 809.09 76.14 798.49C76.14 781.88 76.14 765.27 76.14 748.67C76.14 740.84 74.96 731.98 76.17 724.26C76.43 722.59 76.96 721.28 77.08 719.53C73.96 716.41 70.48 717.18 66.27 717.18C59.37 717.18 52.48 717.18 45.59 717.18C41.95 717.18 37.76 717.46 34.81 714.8C31.92 712.2 31.96 707.04 31.96 703.55C31.96 695.4 31.96 687.26 31.96 679.11C31.96 675.24 32.87 670.05 36.69 667.86C42.26 664.66 55.86 666.42 62.51 666.42C80.99 666.42 99.48 666.42 117.96 666.42C124.32 666.42 136.75 664.8 142.23 667.54C148.77 670.81 149.79 683.85 145.19 688.95C143.33 691.02 139.83 691.75 137.23 691.99ZM190.52 666.6C193.74 665.98 197.4 666.42 200.68 666.42C208.06 666.42 222.83 664.38 228.23 669.89C234.1 675.88 232.17 690.95 232.17 698.85C232.17 723.77 231.23 748.26 231.23 773.11C231.23 783.13 231.23 793.16 231.23 803.19C231.23 808 231.87 813.58 228.85 817.73C226.49 820.96 221.16 821.86 217.57 822.42C210.56 823.52 198.88 823.01 192.04 821.69C188.9 821.09 185.26 821.34 182.85 818.67C178.46 813.79 179.53 796.61 179.53 790.03C179.53 765.27 179.53 740.52 179.53 715.77C179.53 706.06 179.53 696.34 179.53 686.63C179.53 676.95 179.31 668.76 190.52 666.6ZM359.53 693.68C356.21 692.1 351.98 692.74 348.25 692.74C339.92 692.74 330.51 691.59 322.4 693.21C319.92 698.42 321.46 716.52 321.46 723.29C321.46 747.42 321.46 771.54 321.46 795.67C331.39 797.65 344.49 796.14 354.83 796.14C357.75 796.14 361.21 795.63 364.05 796.31C371.56 798.1 373.63 806.9 372.04 813.35C369.56 823.4 358.99 821.51 351.07 821.51C333.52 821.51 315.98 821.51 298.43 821.51C292.26 821.51 280.45 823.07 275.11 820.4C266.79 816.24 269.77 794.33 269.77 786.27C269.77 758.38 269.77 730.5 269.77 702.61C269.77 694.33 267.44 676.8 272.14 670.21C276.75 663.76 289.68 666.42 296.55 666.42C316.61 666.42 336.66 666.42 356.71 666.42C363.02 666.42 376.11 664.7 381.15 668.3C385.45 671.37 385.38 676.21 385.38 680.99C385.38 688.51 385.38 696.03 385.38 703.55C385.38 707.73 385.33 712.13 381.59 714.8C379.7 716.15 376.83 716.97 374.57 717.18C372.86 717.34 370.66 717.42 368.96 717.15C356.95 715.27 361.2 702.01 359.53 693.68ZM488.3 761.36C489.75 754.11 488.77 745.78 488.77 738.33C488.77 723.6 488.77 708.88 488.77 694.15C488.77 686.68 486.34 674.41 492.56 668.8C497.19 664.64 510.44 666.42 516.5 666.42C521.86 666.42 529.28 665.09 534.18 667.54C536.21 668.55 538.82 671.4 539.35 673.65C540.81 679.76 539.53 693.79 539.53 700.73C539.53 730.5 539.53 760.26 539.53 790.03C539.53 798.92 542.61 815.28 534.21 820.43C529.76 823.16 515.57 821.51 509.92 821.51C502.51 821.51 489.23 823.47 483.16 819.14C476.79 814.58 471.84 794.26 468.86 786.44C462.01 768.49 455.38 750.47 448.53 732.51C444.82 722.78 442.23 712.44 437.55 703.08C435.64 712.63 437.08 723.83 437.08 733.63C437.08 753.37 437.08 773.11 437.08 792.85C437.08 803.52 440.73 821.43 425.33 821.51C423.53 821.52 421.49 821.78 419.72 821.48C407.72 819.52 410.76 798.73 410.76 790.03C410.76 759.95 410.76 729.87 410.76 699.79C410.76 692.66 408.6 673.58 415.13 669.39C423.24 664.19 449.28 663.9 454.44 673.97C457.94 680.83 459.89 688.67 462.63 695.86C467.47 708.54 472.48 721.12 477.32 733.81C479.85 740.44 484.34 756.48 488.3 761.36ZM574.01 666.6C581.61 665.08 592.24 666.42 600.16 666.42C617.7 666.42 635.25 666.42 652.79 666.42C659.31 666.42 674.03 664.48 678.64 669.71C683.76 675.51 681.46 693.93 681.46 701.67C681.46 729.87 681.46 758.07 681.46 786.27C681.46 793.98 684.22 815.78 676.73 820.08C671.27 823.21 658.33 821.51 651.85 821.51C632.11 821.51 612.38 821.51 592.64 821.51C585.46 821.51 571.63 824.36 567.29 816.79C563.98 811.02 565.85 801.18 565.85 794.73C565.85 776.87 565.85 759.01 565.85 741.15C565.85 722.35 565.85 703.55 565.85 684.75C565.85 677.85 565.28 668.35 574.01 666.6ZM656.07 719.06C650.43 719.06 645.09 718.62 639.63 718.12C630.41 717.28 620.7 718.12 611.44 718.12C605.81 718.12 597.64 716.67 592.64 719.06C591.42 725.16 592.17 732.06 592.17 738.33C592.17 750.23 592.17 762.14 592.17 774.05C592.17 779.85 590.77 790.76 593.11 795.67C598.06 796.66 603.52 796.14 608.62 796.14C617.7 796.14 626.79 796.14 635.87 796.14C642.17 796.14 650.21 797.45 656.07 795.2C656.07 769.82 656.07 744.44 656.07 719.06Z" fill="#ffffff" fill-rule="evenodd" stroke="#ffffff" stroke-width="0.25" stroke-linejoin="round"/>
<path d="M137.23 691.99C126.23 692.19 115.23 692.39 104.23 692.58C107.2 691.12 111.67 691.8 115.14 691.8C122.48 691.8 129.91 691.47 137.23 691.99Z" fill="#c7c7c7" fill-rule="evenodd" stroke="#c7c7c7" stroke-width="0.25" stroke-linejoin="round"/>
</svg>
